# xmcd CD database file
#
# Track frame offsets:
#	150
#	24074
#	37946
#	54011
#	79534
#	95148
#	114513
#	138830
#	159750
#	175332
#	199927
#	217045
#	233728
#	257495
#	280876
#
# Disc length: 4065 seconds
#
# Revision: 0
# Processed by: cddbd v1.5.2PL0 Copyright (c) Steve Scherf et al.
# Submitted via: CDex 1.51
#
DISCID=b80fdf0f
DTITLE=Various Artist - Jazz Ballads CD2
DYEAR=2011
DGENRE=Jazz
TTITLE0=Stacey Kent and Jim Tomlinson - I'm Just A Lucky So And So
TTITLE1=Clare Teal - Love Is A State Of Mind
TTITLE2=Joan Viskant - If Only Love
TTITLE3=Katrine Madsen - Save You Love For Me
TTITLE4=Callie Cardamon - Easy Street
TTITLE5=Jacqui Hicks - Wonderful Tonight
TTITLE6=Tina May - When You Wish Upon A Star
TTITLE7=Shaynee Rainbolt - I Can't Make You Love Me
TTITLE8=Maureen Mcgovern - Imagine
TTITLE9=Pamela Luss - You Belong To Me
TTITLE10=Clare Teal - Night And Day
TTITLE11=Bobbie Eakes - It's Only Make Believe
TTITLE12=Sinne Eeg - Don't Be So Blue
TTITLE13=Mette Juul - In The Wee Small Hours Of The Morning
TTITLE14=Jennifer Lee - Note To My Niece
EXTD=YEAR: 2011
EXTT0=
EXTT1=
EXTT2=
EXTT3=
EXTT4=
EXTT5=
EXTT6=
EXTT7=
EXTT8=
EXTT9=
EXTT10=
EXTT11=
EXTT12=
EXTT13=
EXTT14=
PLAYORDER=
